<svg width="119" height="66" viewBox="0 0 119 66" fill="none" xmlns="http://www.w3.org/2000/svg">
<circle cx="33" cy="33" r="33" fill="#FF7171"/>
<path d="M20.36 29.736H22.064L22.664 30.576C23 30.272 23.32 30.056 23.624 29.928C23.944 29.8 24.416 29.736 25.04 29.736H27.704C28.408 30.632 28.888 31.528 29.144 32.424C29.4 33.32 29.528 34.44 29.528 35.784V42H26.336V35.544C26.336 34.072 26.112 32.976 25.664 32.256H23.36C23.712 32.944 23.888 33.88 23.888 35.064V42H20.696V35.544C20.696 34.024 20.488 32.928 20.072 32.256H18.224V42H15.032V29.736H17.528L17.96 30.6C18.312 30.28 18.64 30.056 18.944 29.928C19.264 29.8 19.736 29.736 20.36 29.736ZM31.4131 35.256V29.736H34.6051V35.28C34.6051 36.672 34.8851 37.832 35.4451 38.76H36.8611C37.3891 37.848 37.6531 36.688 37.6531 35.28V29.736H40.8451V35.088C40.8451 36.288 40.6851 37.344 40.3651 38.256C40.0611 39.168 39.5571 40.2 38.8531 41.352L37.2451 43.968C36.9571 44.464 36.6531 44.832 36.3331 45.072C36.0131 45.312 35.5971 45.488 35.0851 45.6H31.2931V43.08H33.8851C34.2211 42.984 34.5011 42.816 34.7251 42.576C34.9491 42.336 35.1811 41.992 35.4211 41.544L35.5651 41.28H33.9091C33.1411 40.656 32.5331 39.816 32.0851 38.76C31.6371 37.688 31.4131 36.52 31.4131 35.256ZM49.6486 35.76C49.6486 36.432 49.7526 37.12 49.9606 37.824C50.1686 38.512 50.4566 39.064 50.8246 39.48H54.4246V42H49.1686C47.2806 40.496 46.3366 38.416 46.3366 35.76C46.3366 33.104 47.3446 31.096 49.3606 29.736H54.4246V32.256H50.8246C50.0406 33.072 49.6486 34.24 49.6486 35.76ZM62.8514 42H57.6194C56.0194 40.512 55.2194 38.48 55.2194 35.904C55.2194 34.608 55.3954 33.48 55.7474 32.52C56.1154 31.56 56.6914 30.632 57.4754 29.736H63.0914C63.9234 30.696 64.4914 31.632 64.7954 32.544C65.0994 33.44 65.2514 34.56 65.2514 35.904C65.2514 38.48 64.4514 40.512 62.8514 42ZM59.3234 39.48H61.1474C61.7234 38.36 62.0114 37.088 62.0114 35.664C62.0114 34.24 61.7154 33.104 61.1234 32.256H59.3234C58.7474 33.072 58.4594 34.232 58.4594 35.736C58.4594 37.224 58.7474 38.472 59.3234 39.48ZM74.2655 42H69.0335C67.4335 40.512 66.6335 38.48 66.6335 35.904C66.6335 34.608 66.8095 33.48 67.1615 32.52C67.5295 31.56 68.1055 30.632 68.8895 29.736H74.5055C75.3375 30.696 75.9055 31.632 76.2095 32.544C76.5135 33.44 76.6655 34.56 76.6655 35.904C76.6655 38.48 75.8655 40.512 74.2655 42ZM70.7375 39.48H72.5615C73.1375 38.36 73.4255 37.088 73.4255 35.664C73.4255 34.24 73.1295 33.104 72.5375 32.256H70.7375C70.1615 33.072 69.8735 34.232 69.8735 35.736C69.8735 37.224 70.1615 38.472 70.7375 39.48ZM78.3836 42V25.2H81.5756V34.104H81.9116L84.1676 29.736H87.2876L84.4556 35.088L87.3116 42H84.1436L81.9356 36.624H81.5756V42H78.3836ZM92.4461 29.736H95.0141L95.3741 30.6C95.7261 30.28 96.0541 30.056 96.3581 29.928C96.6781 29.8 97.1501 29.736 97.7741 29.736H99.9341C100.606 30.392 101.134 31.24 101.518 32.28C101.902 33.32 102.094 34.464 102.094 35.712C102.094 38.384 101.294 40.48 99.6941 42H97.6541C96.8061 42 96.1341 41.776 95.6381 41.328V45.6H92.4461V29.736ZM95.6381 39.48H97.9421C98.5341 38.472 98.8301 37.248 98.8301 35.808C98.8301 34.368 98.5261 33.184 97.9181 32.256H95.6381V39.48ZM109.597 36.456H107.029C106.693 36.872 106.525 37.392 106.525 38.016C106.525 38.64 106.701 39.128 107.053 39.48H109.597V36.456ZM104.437 29.736H110.389C111.349 30.312 111.981 30.976 112.285 31.728C112.589 32.464 112.741 33.472 112.741 34.752V38.352C112.741 39.68 112.773 40.896 112.837 42H110.101L109.669 41.136C109.045 41.712 108.165 42 107.029 42H105.517C104.157 41.104 103.477 39.816 103.477 38.136C103.477 36.44 104.173 35.104 105.565 34.128H107.821C108.445 34.128 109.029 34.32 109.573 34.704V33.504C109.573 32.88 109.301 32.464 108.757 32.256H104.437V29.736ZM117.973 25.2V42H114.805V25.2H117.973Z" fill="black"/>
</svg>
